<svg width="412" height="118" viewBox="0 0 412 118" fill="none" xmlns="http://www.w3.org/2000/svg">
<path d="M58.8222 117.481C91.3088 117.481 117.644 91.1821 117.644 58.7406C117.644 26.2991 91.3088 0 58.8222 0C26.3356 0 0 26.2991 0 58.7406C0 91.1821 26.3356 117.481 58.8222 117.481Z" fill="#FFA5AB"/>
<path d="M21.2964 79.1566L59.6635 117.471C91.4231 117.026 117.093 91.4482 117.632 59.7552L102.855 44.9989L21.2964 79.1566Z" fill="#DA627D"/>
<path d="M72.0039 39.3515L69.2668 28.1927C69.0969 27.5001 68.4754 27.0132 67.7612 27.0132H34.8414C33.9854 27.0132 33.2914 27.7062 33.2914 28.561V32.5925C33.2914 33.4473 33.9854 34.1404 34.8414 34.1404H62.3721C63.0863 34.1404 63.7078 34.6273 63.8777 35.3199L65.047 40.088C65.217 40.7806 65.8385 41.2676 66.5527 41.2676H70.4979C71.504 41.2676 72.2432 40.3265 72.0039 39.3515Z" fill="#32373B"/>
<path d="M100.165 75.7378L87.5857 69.4567C86.7856 69.0572 86.2805 68.2407 86.2805 67.3476V52.984C86.2805 52.0908 86.786 51.2744 87.5857 50.8749L100.165 44.5938C101.735 43.8098 103.583 44.9498 103.583 46.7029V73.6291C103.583 75.3818 101.735 76.5218 100.165 75.7378Z" fill="#D0D5D9"/>
<path d="M81.6927 81.9797H27.7138C22.9106 81.9797 19.0172 78.0914 19.0172 73.2952V47.0364C19.0172 42.2398 22.911 38.3519 27.7138 38.3519H81.6931C86.4963 38.3519 90.3897 42.2402 90.3897 47.0364V73.2952C90.3893 78.0914 86.496 81.9797 81.6927 81.9797Z" fill="#777C7F"/>
<path d="M72.004 39.3511L69.2668 28.1923C69.0969 27.4997 68.4754 27.0128 67.7612 27.0128H58.6899V34.14H62.3722C63.0864 34.14 63.7078 34.6269 63.8778 35.3195L65.0471 40.0876C65.217 40.7802 65.8385 41.2672 66.5527 41.2672H70.4983C71.5041 41.2676 72.2432 40.3265 72.004 39.3511Z" fill="#2C3033"/>
<path d="M81.6928 38.3519H58.6903V81.9797H81.6928C86.4956 81.9797 90.3893 78.0914 90.3893 73.2952V47.0364C90.3893 42.2398 86.496 38.3519 81.6928 38.3519Z" fill="#585D60"/>
<path d="M27.7138 38.3519C22.911 38.3519 19.0172 42.2402 19.0172 47.0364V73.2952C19.0172 78.0914 22.911 81.9797 27.7138 81.9797H36.1755V38.3519H27.7138Z" fill="#32373B"/>
<path d="M71.8974 48.2867H73.1951C74.1505 48.2867 74.9253 47.513 74.9253 46.5589V45.2631C74.9253 44.309 74.1505 43.5353 73.1951 43.5353H71.8974C70.942 43.5353 70.1672 44.309 70.1672 45.2631V46.5589C70.1672 47.513 70.942 48.2867 71.8974 48.2867Z" fill="#D0D5D9"/>
<path d="M80.2243 48.2867H81.522C82.4774 48.2867 83.2522 47.513 83.2522 46.5589V45.2631C83.2522 44.309 82.4774 43.5353 81.522 43.5353H80.2243C79.2685 43.5353 78.4941 44.309 78.4941 45.2631V46.5589C78.4941 47.513 79.2685 48.2867 80.2243 48.2867Z" fill="#D0D5D9"/>
<path d="M44.1416 70.8566H79.5394C81.5901 70.8566 83.2522 69.1964 83.2522 67.149V60.3098C83.2522 58.262 81.5897 56.6022 79.5394 56.6022H44.1416C42.0909 56.6022 40.4288 58.2624 40.4288 60.3098V67.149C40.4288 69.1968 42.0909 70.8566 44.1416 70.8566Z" fill="#32373B"/>
<path d="M79.5395 56.6022H58.6903V70.857H79.5395C81.5902 70.857 83.2522 69.1968 83.2522 67.1494V60.3102C83.2522 58.262 81.5898 56.6022 79.5395 56.6022Z" fill="#2C3033"/>
<path d="M160 32.0605H172.658V36.7816C173.813 33.2921 176.352 31.5474 180.274 31.5474C184.23 31.5474 186.629 33.3947 187.469 37.0895C188.695 33.3947 191.268 31.5474 195.19 31.5474C200.337 31.5474 202.911 34.4039 202.911 40.1171V55.5632H205.852V56.4868H191.303V55.5632H193.142V38.8855C193.142 36.2855 192.914 34.7632 192.459 34.3184C192.249 34.1132 191.969 34.0105 191.618 34.0105C190.603 34.0105 189.71 34.6776 188.94 36.0118C188.169 37.3461 187.784 39.0395 187.784 41.0921V55.5632H189.675V56.4868H176.177V55.5632H178.015V38.8855C178.015 36.2855 177.788 34.7632 177.332 34.3184C177.122 34.1132 176.842 34.0105 176.492 34.0105C175.512 34.0105 174.619 34.7461 173.813 36.2171C173.043 37.6539 172.658 39.3816 172.658 41.4V55.5632H174.549V56.4868H160V55.5632H162.889V32.9842H160V32.0605Z" fill="#450920"/>
<path d="M236.324 56.4868H224.349L223.771 52.7408C223.211 54.1092 222.37 55.1697 221.25 55.9224C220.164 56.6408 218.536 57 216.365 57C210.938 57 208.224 54.1434 208.224 48.4303V32.9842H205.283V32.0605H217.993V49.6618C217.993 51.7145 218.133 53.0658 218.413 53.7158C218.729 54.3658 219.324 54.6908 220.199 54.6908C221.11 54.6908 221.915 54.1605 222.615 53.1C223.316 52.0395 223.666 50.5684 223.666 48.6868V32.9842H221.25V32.0605H233.435V55.5632H236.324V56.4868Z" fill="#450920"/>
<path d="M237.189 18H250.057V55.5632H252.998V56.4868H237.399V55.5632H240.287V18.9237H237.189V18Z" fill="#450920"/>
<path d="M254.017 18H266.675V36.7816C267.235 35.2079 268.093 33.9421 269.249 32.9842C270.404 32.0263 272.155 31.5474 274.501 31.5474C279.928 31.5474 282.642 34.4039 282.642 40.1171V55.5632H285.583V56.4868H270.719V55.5632H272.873V38.8855C272.873 36.8329 272.733 35.5158 272.452 34.9342C272.172 34.3184 271.665 34.0105 270.929 34.0105C269.809 34.0105 268.811 34.7289 267.936 36.1658C267.095 37.6026 266.675 39.3474 266.675 41.4V55.5632H268.933V56.4868H254.017V55.5632H256.906V18.9237H254.017V18Z" fill="#450920"/>
<path d="M300.195 57C295.678 57 292.282 55.8711 290.006 53.6132C287.765 51.3211 286.645 48.1566 286.645 44.1197C286.645 40.0487 287.905 36.9355 290.426 34.7803C292.982 32.625 296.221 31.5474 300.143 31.5474C308.091 31.5474 311.908 35.4474 311.593 43.2474H296.781V45.2487C296.781 48.6013 297.219 51.1329 298.094 52.8434C298.97 54.5539 300.493 55.4092 302.664 55.4092C306.726 55.4092 309.387 53.2882 310.647 49.0461L311.593 49.2C310.927 51.6632 309.719 53.5789 307.969 54.9474C306.253 56.3158 303.662 57 300.195 57ZM296.834 42.2211H302.244V39.7066C302.244 36.9355 302.069 35.0539 301.718 34.0618C301.403 33.0355 300.738 32.5224 299.723 32.5224C298.742 32.5224 298.007 33.0697 297.517 34.1645C297.061 35.225 296.834 37.0724 296.834 39.7066V42.2211Z" fill="#450920"/>
<path d="M331.006 33.4974C329.711 33.4974 328.573 34.3184 327.592 35.9605C326.612 37.6026 326.122 39.5526 326.122 41.8105V55.5632H329.851V56.4868H313.464V55.5632H316.353V32.9842H313.464V32.0605H326.122V36.9868C326.577 35.2421 327.452 33.9079 328.748 32.9842C330.043 32.0263 331.514 31.5474 333.16 31.5474C334.805 31.5474 336.136 32.0092 337.151 32.9329C338.202 33.8224 338.727 35.1053 338.727 36.7816C338.727 38.4237 338.342 39.6895 337.572 40.5789C336.801 41.4684 335.611 41.9132 334 41.9132C332.424 41.9132 331.251 41.4 330.481 40.3737C329.746 39.3474 329.658 37.9276 330.218 36.1145H332.109C332.985 34.3697 332.617 33.4974 331.006 33.4974Z" fill="#450920"/>
<path d="M353.025 57C348.508 57 345.112 55.8711 342.836 53.6132C340.595 51.3211 339.475 48.1566 339.475 44.1197C339.475 40.0487 340.735 36.9355 343.256 34.7803C345.812 32.625 349.051 31.5474 352.973 31.5474C360.921 31.5474 364.738 35.4474 364.423 43.2474H349.611V45.2487C349.611 48.6013 350.049 51.1329 350.925 52.8434C351.8 54.5539 353.323 55.4092 355.494 55.4092C359.556 55.4092 362.217 53.2882 363.477 49.0461L364.423 49.2C363.757 51.6632 362.549 53.5789 360.799 54.9474C359.083 56.3158 356.492 57 353.025 57ZM349.664 42.2211H355.074V39.7066C355.074 36.9355 354.899 35.0539 354.549 34.0618C354.233 33.0355 353.568 32.5224 352.553 32.5224C351.572 32.5224 350.837 33.0697 350.347 34.1645C349.892 35.225 349.664 37.0724 349.664 39.7066V42.2211Z" fill="#450920"/>
<path d="M366.989 57V47.8145H367.619C368.53 50.7908 369.755 52.8776 371.296 54.075C372.836 55.2724 374.762 55.8711 377.073 55.8711C380.645 55.8711 382.431 54.7592 382.431 52.5355C382.431 51.5776 381.993 50.8592 381.118 50.3803C379.752 49.6276 378.001 49.0461 375.865 48.6355C373.484 48.0197 371.488 47.1987 369.878 46.1724C367.952 44.9408 366.989 42.9908 366.989 40.3224C366.989 37.6539 367.829 35.5329 369.51 33.9592C371.191 32.3513 373.432 31.5474 376.233 31.5474C377.949 31.5474 379.717 31.9408 381.538 32.7276C382.203 33.0013 382.711 33.1382 383.061 33.1382C383.411 33.1382 383.709 33.0184 383.954 32.7789C384.199 32.5395 384.496 32.0947 384.847 31.4447H385.424V39.2961H384.794C383.008 34.8487 380.242 32.625 376.496 32.625C374.85 32.625 373.624 32.9158 372.819 33.4974C372.014 34.0447 371.611 34.7461 371.611 35.6013C371.611 36.1145 371.734 36.525 371.979 36.8329C372.224 37.1066 372.416 37.3118 372.556 37.4487C372.696 37.5855 372.924 37.7395 373.239 37.9105C373.554 38.0474 373.817 38.1671 374.027 38.2697C374.237 38.3382 374.552 38.4408 374.972 38.5776C375.428 38.7145 375.76 38.8 375.97 38.8342C378.351 39.4158 380.067 39.9289 381.118 40.3737C382.168 40.7842 383.166 41.2974 384.111 41.9132C386.037 43.2132 387 45.3171 387 48.225C387 51.0987 386.125 53.2882 384.374 54.7934C382.623 56.2645 380.225 57 377.178 57C375.007 57 372.907 56.5039 370.876 55.5118C370.455 55.2382 370.123 55.1013 369.878 55.1013C369.107 55.1013 368.355 55.7342 367.619 57H366.989Z" fill="#450920"/>
<path d="M158.305 72.4722C158.305 73.3969 158.204 74.4258 158.003 75.5592C157.801 76.6628 157.47 77.7067 157.009 78.691C156.548 79.6752 155.958 80.4954 155.238 81.1516C154.517 81.8078 153.625 82.1359 152.559 82.1359C151.983 82.1359 151.608 82.0464 151.436 81.8674C151.292 81.6885 151.22 81.3753 151.22 80.9279C151.22 80.6595 151.22 80.2717 151.22 79.7647C151.248 79.2278 151.263 78.7208 151.263 78.2436C151.263 77.7067 151.191 77.2593 151.047 76.9014C150.903 76.5137 150.543 76.3198 149.967 76.3198C149.304 76.3198 148.555 76.5882 147.72 77.1251C146.914 77.6321 146.093 78.3032 145.257 79.1384C144.451 79.9735 143.659 80.9279 142.881 82.0017C142.103 83.0456 141.398 84.1193 140.764 85.2229C140.159 86.2966 139.67 87.3405 139.295 88.3546C138.95 89.3687 138.777 90.2336 138.777 90.9495C138.777 91.9934 139.122 92.8136 139.814 93.4101C140.534 94.0066 141.499 94.3049 142.708 94.3049C144.004 94.3049 145.387 94.0812 146.856 93.6338C148.325 93.1864 149.779 92.6197 151.22 91.9337C152.688 91.2477 154.1 90.5021 155.454 89.6968C156.807 88.8915 158.031 88.1309 159.126 87.4151C160.249 86.6694 161.185 86.0431 161.934 85.536C162.683 84.9992 163.173 84.6711 163.403 84.5518C163.864 84.3132 164.296 84.1939 164.699 84.1939C165.045 84.1939 165.333 84.2833 165.563 84.4623C165.823 84.6114 166.024 84.8053 166.168 85.0439C166.312 85.2527 166.413 85.4913 166.471 85.7597C166.528 85.9983 166.557 86.2071 166.557 86.3861C166.557 86.6545 166.528 86.9826 166.471 87.3703C166.413 87.7283 166.197 88.1458 165.823 88.623C165.679 88.802 165.203 89.2643 164.397 90.0099C163.619 90.7258 162.597 91.5758 161.329 92.5601C160.091 93.5443 158.651 94.6031 157.009 95.7365C155.396 96.8401 153.653 97.8542 151.781 98.7788C149.938 99.7034 148.022 100.464 146.035 101.06C144.048 101.687 142.089 102 140.159 102C138.69 102 137.38 101.761 136.228 101.284C135.104 100.807 134.154 100.166 133.376 99.3604C132.599 98.5253 132.008 97.5559 131.605 96.4524C131.202 95.3488 131 94.1856 131 92.9627C131 91.6205 131.302 90.0845 131.907 88.3546C132.512 86.5949 133.347 84.8053 134.413 82.9859C135.479 81.1665 136.732 79.377 138.172 77.6172C139.612 75.8575 141.167 74.2916 142.838 72.9196C144.537 71.5476 146.294 70.4441 148.109 69.6089C149.952 68.7738 151.81 68.3563 153.682 68.3563C154.316 68.3563 154.906 68.4308 155.454 68.58C156.03 68.7291 156.519 68.9677 156.923 69.2958C157.355 69.594 157.686 70.0116 157.916 70.5485C158.175 71.0853 158.305 71.7266 158.305 72.4722Z" fill="#DA627D"/>
<path d="M172.26 62.1823C172.26 61.4963 172.375 60.7954 172.606 60.0795C172.865 59.3339 173.239 58.6628 173.729 58.0663C174.219 57.4698 174.823 56.9776 175.544 56.5899C176.292 56.2022 177.171 56.0083 178.179 56.0083C179.85 56.0083 181.016 56.3513 181.679 57.0373C182.341 57.6935 182.672 58.5286 182.672 59.5427C182.672 60.1094 182.557 60.7357 182.327 61.4217C182.125 62.1077 181.808 62.749 181.376 63.3455C180.944 63.9122 180.382 64.3894 179.691 64.7771C179 65.1649 178.179 65.3587 177.228 65.3587C175.443 65.3587 174.19 65.0754 173.47 64.5087C172.75 63.9122 172.346 63.1367 172.26 62.1823ZM167.508 72.2486C167.997 71.4134 168.559 70.8169 169.192 70.459C169.826 70.1011 170.474 69.9221 171.137 69.9221C172.231 69.9221 173.167 70.2949 173.945 71.0406C174.751 71.7564 175.155 72.681 175.155 73.8144C175.126 74.0829 175.083 74.3513 175.025 74.6197C174.996 74.8882 174.91 75.1566 174.766 75.425C174.363 76.2005 174.031 76.8567 173.772 77.3935C173.513 77.9304 173.268 78.4374 173.038 78.9147C172.836 79.3621 172.634 79.8094 172.433 80.2568C172.231 80.7042 171.986 81.2411 171.698 81.8674C171.353 82.6131 170.964 83.4333 170.532 84.3281C170.1 85.193 169.682 86.0878 169.279 87.0124C168.904 87.937 168.573 88.8467 168.285 89.7415C168.026 90.6363 167.896 91.4565 167.896 92.2022C167.896 93.0075 168.084 93.5443 168.458 93.8128C168.861 94.0514 169.423 94.1707 170.143 94.1707C170.949 94.1707 171.785 93.9917 172.649 93.6338C173.542 93.2759 174.435 92.8136 175.327 92.2469C176.22 91.6802 177.099 91.0389 177.963 90.3231C178.827 89.5775 179.634 88.8318 180.382 88.0862C181.16 87.3405 181.866 86.6247 182.499 85.9387C183.162 85.2527 183.709 84.6413 184.141 84.1044C184.717 83.5377 185.293 83.2544 185.869 83.2544C186.388 83.2544 186.805 83.493 187.122 83.9702C187.468 84.4474 187.641 85.0588 187.641 85.8045C187.641 86.4905 187.468 87.2212 187.122 87.9967C186.805 88.7722 186.273 89.5029 185.524 90.1889C184.055 91.7399 182.557 93.2312 181.03 94.6628C179.504 96.0646 177.934 97.3173 176.321 98.4209C174.737 99.4946 173.138 100.36 171.526 101.016C169.913 101.672 168.285 102 166.643 102C164.31 102 162.467 101.389 161.113 100.166C159.788 98.913 159.126 96.9743 159.126 94.3496C159.126 92.9776 159.313 91.6355 159.688 90.3231C160.062 89.0108 160.508 87.7432 161.027 86.5203C161.545 85.2676 162.093 84.0746 162.669 82.9412C163.245 81.778 163.734 80.6744 164.138 79.6305C164.282 79.2428 164.526 78.6462 164.872 77.8409C165.247 77.0356 165.635 76.2154 166.039 75.3803C166.499 74.396 166.989 73.3521 167.508 72.2486Z" fill="#DA627D"/>
<path d="M189.498 73.7249C190.075 72.4424 190.795 71.488 191.659 70.8616C192.523 70.2353 193.372 69.9221 194.208 69.9221C194.899 69.9221 195.518 70.1906 196.065 70.7274C196.613 71.2345 196.886 71.995 196.886 73.0091C196.886 73.3969 196.843 73.8144 196.757 74.2618C196.67 74.7092 196.512 75.1864 196.282 75.6935C196.915 74.8583 197.822 74.0083 199.003 73.1433C200.184 72.2486 201.48 71.4582 202.892 70.7722C204.332 70.0563 205.801 69.4747 207.299 69.0273C208.825 68.58 210.265 68.3563 211.619 68.3563C213.146 68.3563 214.413 68.744 215.421 69.5195C216.458 70.2651 216.976 71.5476 216.976 73.367C216.976 74.4408 216.818 75.5592 216.501 76.7225C216.184 77.8857 215.767 79.0489 215.248 80.2121C214.759 81.3753 214.197 82.5236 213.563 83.657C212.958 84.7606 212.353 85.8045 211.749 86.7887C211.144 87.773 210.582 88.6827 210.064 89.5178C209.574 90.3231 209.185 90.9942 208.897 91.5311C208.523 92.0083 208.335 92.5601 208.335 93.1864C208.335 93.425 208.407 93.6338 208.552 93.8128C208.696 93.9917 208.926 94.0812 209.243 94.0812C209.444 94.0812 209.675 94.0663 209.934 94.0365C210.193 93.9768 210.51 93.8128 210.885 93.5443C212.44 92.9478 214.024 92.2022 215.637 91.3074C217.279 90.4126 218.848 89.4731 220.346 88.4888C221.844 87.4747 223.212 86.4756 224.451 85.4913C225.718 84.4772 226.769 83.5675 227.605 82.7622C227.835 82.5534 228.065 82.4043 228.296 82.3148C228.526 82.2254 228.742 82.1806 228.944 82.1806C229.434 82.1806 229.808 82.3745 230.067 82.7622C230.355 83.15 230.499 83.6421 230.499 84.2386C230.499 85.1632 230.211 86.1922 229.635 87.3256C229.088 88.459 228.209 89.5178 227 90.5021C225.358 91.7249 223.846 92.8434 222.463 93.8575C221.11 94.8716 219.713 95.826 218.272 96.7208C216.861 97.5858 215.335 98.406 213.693 99.1814C212.08 99.9271 210.179 100.628 207.99 101.284C207.241 101.523 206.55 101.702 205.916 101.821C205.311 101.94 204.75 102 204.231 102C202.705 102 201.581 101.568 200.861 100.703C200.17 99.8078 199.824 98.57 199.824 96.9892C199.824 96.7804 199.824 96.5866 199.824 96.4076C199.853 96.1988 199.882 95.9751 199.911 95.7365C199.968 94.8119 200.199 93.7978 200.602 92.6943C201.034 91.5907 201.538 90.4573 202.114 89.2941C202.719 88.1309 203.353 86.9826 204.015 85.8492C204.678 84.686 205.282 83.5973 205.83 82.5833C206.406 81.5394 206.881 80.6147 207.255 79.8094C207.63 79.0041 207.817 78.348 207.817 77.8409C207.817 77.3935 207.687 77.0207 207.428 76.7225C207.198 76.3944 206.838 76.2303 206.348 76.2303C204.505 76.2303 202.748 76.797 201.077 77.9304C199.435 79.0638 197.894 80.4656 196.454 82.1359C195.014 83.7763 193.689 85.5211 192.48 87.3703C191.27 89.2196 190.204 90.8749 189.282 92.3364C188.706 93.3206 188.174 94.3795 187.684 95.5128C187.223 96.6164 186.733 97.6603 186.215 98.6446C185.696 99.599 185.106 100.389 184.444 101.016C183.81 101.672 183.003 102 182.024 102C181.016 102 180.224 101.672 179.648 101.016C179.072 100.36 178.784 99.5543 178.784 98.5998C178.784 98.0928 178.985 97.2726 179.389 96.1392C179.792 95.0058 180.31 93.6935 180.944 92.2022C181.578 90.7109 182.283 89.1152 183.061 87.4151C183.868 85.6852 184.66 83.9851 185.437 82.3148C186.244 80.6147 187.007 79.0191 187.727 77.5278C188.447 76.0365 189.038 74.7688 189.498 73.7249Z" fill="#DA627D"/>
<path d="M241.559 74.4855C241.415 74.4557 241.286 74.4408 241.171 74.4408C241.055 74.4408 240.926 74.4408 240.782 74.4408C239.687 74.4408 238.665 74.6645 237.714 75.1118C236.764 75.5592 235.885 76.1558 235.079 76.9014C234.301 77.6172 233.596 78.4374 232.962 79.3621C232.357 80.2867 231.81 81.2113 231.32 82.1359C230.83 83.0307 230.413 83.8956 230.067 84.7307C229.75 85.5659 229.506 86.2668 229.333 86.8335C230.341 86.2966 231.378 85.6852 232.443 84.9992C233.538 84.3132 234.56 83.657 235.511 83.0307C236.461 82.4043 237.282 81.8376 237.974 81.3306C238.694 80.8235 239.198 80.4805 239.486 80.3016C240.782 79.4664 241.675 78.691 242.164 77.9751C242.654 77.2295 242.899 76.5882 242.899 76.0514C242.899 75.604 242.755 75.2461 242.467 74.9776C242.208 74.7092 241.905 74.5452 241.559 74.4855ZM243.115 68.3115C245.505 68.3115 247.291 68.908 248.472 70.1011C249.653 71.2941 250.244 72.9495 250.244 75.0671C250.244 76.3198 249.927 77.6321 249.293 79.0041C248.659 80.3761 247.565 81.778 246.01 83.2096C244.454 84.6114 242.366 86.058 239.745 87.5493C237.153 89.0108 233.898 90.4872 229.981 91.9785C230.125 92.8434 230.571 93.5294 231.32 94.0365C232.069 94.5137 233.063 94.7523 234.301 94.7523C235.626 94.7523 237.037 94.5584 238.535 94.1707C240.062 93.7531 241.559 93.2312 243.028 92.6048C244.526 91.9785 245.981 91.3074 247.392 90.5915C248.803 89.8459 250.071 89.145 251.194 88.4888C252.346 87.8326 253.297 87.2659 254.046 86.7887C254.823 86.3115 255.342 86.0133 255.601 85.894C255.86 85.715 256.091 85.6106 256.292 85.5808C256.523 85.551 256.724 85.536 256.897 85.536C257.243 85.536 257.531 85.6255 257.761 85.8045C257.991 85.9536 258.179 86.1475 258.323 86.3861C258.496 86.5949 258.611 86.8335 258.668 87.1019C258.726 87.3405 258.755 87.5493 258.755 87.7283C258.755 87.9967 258.726 88.3248 258.668 88.7125C258.611 89.0704 258.395 89.488 258.02 89.9652C257.876 90.1143 257.387 90.517 256.551 91.1732C255.745 91.8293 254.694 92.6048 253.397 93.4996C252.101 94.3944 250.589 95.3488 248.861 96.3629C247.162 97.3471 245.347 98.2568 243.417 99.092C241.516 99.9271 239.529 100.613 237.455 101.15C235.381 101.717 233.336 102 231.32 102C229.592 102 228.051 101.657 226.697 100.971C225.372 100.285 224.235 99.3604 223.284 98.1972C222.362 97.034 221.657 95.6918 221.167 94.1707C220.677 92.6495 220.433 91.0539 220.433 89.3836C220.433 88.1011 220.677 86.6993 221.167 85.1781C221.657 83.6272 222.362 82.0762 223.284 80.5253C224.206 78.9743 225.329 77.4681 226.654 76.0066C228.008 74.5153 229.52 73.203 231.19 72.0696C232.861 70.9362 234.69 70.0265 236.677 69.3405C238.694 68.6545 240.839 68.3115 243.115 68.3115Z" fill="#DA627D"/>
<path d="M271.198 76.454C269.844 76.454 268.533 76.8119 267.266 77.5278C265.999 78.2436 264.875 79.1831 263.896 80.3463C262.917 81.5095 262.139 82.8219 261.563 84.2833C260.987 85.715 260.699 87.1616 260.699 88.623C260.699 89.2196 260.728 89.8459 260.785 90.5021C260.872 91.1284 261.045 91.71 261.304 92.2469C261.563 92.7838 261.923 93.2312 262.384 93.5891C262.874 93.947 263.522 94.1259 264.328 94.1259C264.962 94.1259 265.696 93.8426 266.532 93.2759C267.396 92.6794 268.274 91.9337 269.167 91.0389C270.089 90.1143 270.982 89.1152 271.846 88.0414C272.71 86.9379 273.487 85.8641 274.179 84.8202C274.87 83.7763 275.432 82.8368 275.864 82.0017C276.296 81.1665 276.512 80.5551 276.512 80.1674C276.512 79.6007 276.324 79.0936 275.95 78.6462C275.576 78.169 275.115 77.7664 274.567 77.4383C274.02 77.1102 273.43 76.8716 272.796 76.7225C272.191 76.5435 271.658 76.454 271.198 76.454ZM301.138 87.9967C300.62 88.5037 299.928 89.2046 299.064 90.0994C298.2 90.9942 297.206 91.9635 296.083 93.0075C294.989 94.0514 293.808 95.1102 292.54 96.1839C291.302 97.2278 290.02 98.1823 288.695 99.0472C287.399 99.9122 286.117 100.613 284.85 101.15C283.583 101.717 282.387 102 281.264 102C280.256 102 279.392 101.776 278.672 101.329C277.952 100.882 277.347 100.3 276.857 99.5841C276.396 98.8683 276.051 98.063 275.82 97.1682C275.59 96.2436 275.475 95.3041 275.475 94.3496C275.475 93.7233 275.518 93.1118 275.604 92.5153C275.691 91.889 275.835 91.3074 276.036 90.7705C275.144 92.0232 274.121 93.3206 272.969 94.6628C271.846 95.9751 270.622 97.1831 269.297 98.2867C268 99.3604 266.632 100.24 265.192 100.926C263.781 101.642 262.341 102 260.872 102C260.123 102 259.244 101.836 258.236 101.508C257.257 101.21 256.321 100.703 255.428 99.9867C254.535 99.2709 253.786 98.3463 253.181 97.2129C252.577 96.0795 252.274 94.6926 252.274 93.0522C252.274 91.8293 252.447 90.3679 252.793 88.6678C253.167 86.9677 253.714 85.208 254.434 83.3886C255.183 81.5394 256.119 79.72 257.243 77.9304C258.395 76.1408 259.748 74.5452 261.304 73.1433C262.859 71.7117 264.631 70.5634 266.618 69.6984C268.605 68.8036 270.823 68.3563 273.271 68.3563C274.539 68.3563 275.648 68.5203 276.598 68.8484C277.549 69.1765 278.355 69.5344 279.018 69.9221C279.766 70.3993 280.429 70.9213 281.005 71.488C281.495 71.2196 281.999 70.966 282.517 70.7274C282.949 70.5186 283.396 70.3397 283.856 70.1906C284.346 70.0116 284.764 69.9221 285.109 69.9221C286.204 69.9221 287.097 70.2353 287.788 70.8616C288.479 71.488 288.825 72.174 288.825 72.9196C288.825 73.1284 288.81 73.2925 288.782 73.4118C288.638 73.9785 288.407 74.6943 288.09 75.5592C287.802 76.4242 287.471 77.3935 287.097 78.4673C286.722 79.5112 286.333 80.6147 285.93 81.778C285.556 82.9114 285.21 84.0298 284.893 85.1334C284.576 86.237 284.317 87.2809 284.116 88.2651C283.914 89.2196 283.813 90.0398 283.813 90.7258C283.813 91.6205 283.957 92.3662 284.245 92.9627C284.533 93.5294 285.023 93.8128 285.714 93.8128C286.146 93.8128 286.65 93.6785 287.226 93.4101C287.831 93.1118 288.479 92.7241 289.171 92.2469C289.862 91.7697 290.567 91.2328 291.288 90.6363C292.036 90.0099 292.756 89.3836 293.448 88.7572C295.061 87.2659 296.774 85.5659 298.589 83.657C299.05 83.2693 299.496 83.0754 299.928 83.0754C300.504 83.0754 300.98 83.3737 301.354 83.9702C301.757 84.5369 301.959 85.1781 301.959 85.894C301.959 86.7291 301.685 87.43 301.138 87.9967Z" fill="#DA627D"/>
<path d="M309.044 75.6935C310.801 76.6479 312.371 77.7365 313.754 78.9594C315.136 80.1823 316.303 81.4797 317.253 82.8517C318.233 84.1939 318.967 85.5659 319.457 86.9677C319.975 88.3695 320.234 89.7415 320.234 91.0837C320.234 92.7838 319.759 94.3198 318.809 95.6918C317.887 97.034 316.663 98.1823 315.136 99.1367C313.638 100.061 311.91 100.762 309.952 101.239C308.022 101.746 306.063 102 304.076 102C302.578 102 301.124 101.821 299.712 101.463C298.301 101.135 297.005 100.613 295.824 99.8973C294.672 99.1814 293.678 98.2717 292.843 97.1682C292.008 96.0348 291.417 94.6926 291.071 93.1417C291.014 92.9031 290.985 92.7092 290.985 92.5601C290.985 91.7548 291.259 91.0688 291.806 90.5021C292.353 89.9056 292.958 89.6073 293.621 89.6073C293.937 89.6073 294.283 89.6669 294.657 89.7862C295.061 89.9056 295.363 90.174 295.565 90.5915C295.939 91.3074 296.458 91.9486 297.12 92.5153C297.811 93.082 298.575 93.5742 299.41 93.9917C300.245 94.3795 301.124 94.6926 302.045 94.9312C302.996 95.14 303.918 95.2444 304.81 95.2444C305.732 95.2444 306.611 95.1549 307.446 94.976C308.31 94.797 309.059 94.5137 309.692 94.1259C310.355 93.7382 310.873 93.2461 311.248 92.6495C311.622 92.053 311.809 91.3223 311.809 90.4573C311.809 88.9362 311.478 87.5344 310.816 86.2519C310.153 84.9693 309.289 83.7912 308.224 82.7175C307.187 81.6139 305.991 80.5998 304.638 79.6752C303.313 78.7208 301.988 77.8111 300.663 76.9461C300.519 76.8567 300.303 76.6031 300.015 76.1856C299.727 75.7382 299.583 75.2908 299.583 74.8434C299.583 74.4855 299.669 74.2022 299.842 73.9934C300.303 73.367 300.836 72.7258 301.44 72.0696C302.045 71.4134 302.693 70.8169 303.385 70.28C304.076 69.7133 304.825 69.2659 305.631 68.9379C306.438 68.58 307.273 68.401 308.137 68.401C308.771 68.401 309.361 68.4905 309.909 68.6694C310.456 68.8484 310.917 69.087 311.291 69.3853C311.665 69.6537 311.954 69.9669 312.155 70.3248C312.386 70.6529 312.501 70.966 312.501 71.2643C312.501 71.6819 312.4 72.0845 312.198 72.4722C311.997 72.86 311.723 73.2328 311.377 73.5907C311.061 73.9486 310.686 74.3065 310.254 74.6645C309.851 75.0224 309.448 75.3654 309.044 75.6935Z" fill="#DA627D"/>
<path d="M335.961 76.0066C334.895 78.1541 333.887 80.2568 332.936 82.3148C331.986 84.343 331.093 86.222 330.258 87.9519C329.912 88.6678 329.566 89.5029 329.221 90.4573C328.904 91.3819 328.746 92.2022 328.746 92.918C328.746 93.3355 328.832 93.6636 329.005 93.9022C329.206 94.1408 329.523 94.2601 329.955 94.2601C330.56 94.2601 331.323 94.0812 332.245 93.7233C333.167 93.3355 334.16 92.8434 335.226 92.2469C336.292 91.6205 337.415 90.9196 338.596 90.1442C339.777 89.3389 340.929 88.5186 342.052 87.6835C343.205 86.8186 344.299 85.9685 345.336 85.1334C346.373 84.2684 347.295 83.478 348.101 82.7622C348.562 82.4341 348.994 82.2701 349.397 82.2701C349.887 82.2701 350.29 82.4938 350.607 82.9412C350.924 83.3886 351.082 83.9553 351.082 84.6413C351.082 85.3273 350.924 86.0282 350.607 86.744C350.29 87.4598 349.714 88.1607 348.879 88.8467C347.006 90.6065 345.106 92.2767 343.176 93.8575C341.275 95.4383 339.374 96.8401 337.473 98.063C335.601 99.256 333.743 100.21 331.899 100.926C330.056 101.642 328.27 102 326.542 102C325.39 102 324.425 101.836 323.647 101.508C322.87 101.21 322.236 100.792 321.746 100.255C321.286 99.6885 320.954 99.0472 320.753 98.3314C320.551 97.5858 320.45 96.7954 320.45 95.9602C320.45 94.4689 320.695 92.918 321.185 91.3074C321.674 89.6968 322.222 88.2502 322.827 86.9677C323.691 85.1185 324.54 83.2842 325.376 81.4648C326.24 79.6454 327.075 77.9006 327.881 76.2303H326.024C324.411 76.2303 323.302 75.9619 322.697 75.425C322.092 74.8882 321.79 74.2767 321.79 73.5907C321.79 73.2925 321.876 72.9345 322.049 72.517C322.251 72.0696 322.524 71.6669 322.87 71.309C323.244 70.9213 323.691 70.5932 324.209 70.3248C324.728 70.0563 325.318 69.9221 325.98 69.9221H330.647L339.763 51.1765C340.339 50.0431 341.044 49.2378 341.88 48.7606C342.744 48.2535 343.637 48 344.558 48C345.422 48 346.214 48.2386 346.934 48.7158C347.655 49.193 348.015 49.9834 348.015 51.087C348.015 51.6537 347.885 52.2353 347.626 52.8318C347.395 53.3985 347.079 54.0696 346.675 54.8451C346.416 55.3521 346.099 55.9635 345.725 56.6794C345.35 57.3654 344.947 58.111 344.515 58.9163C344.112 59.6918 343.68 60.512 343.219 61.377C342.787 62.2419 342.355 63.0771 341.923 63.8824C340.944 65.7912 339.907 67.8045 338.812 69.9221H352.897C353.588 69.9221 354.222 69.9669 354.798 70.0563C355.374 70.116 355.863 70.2651 356.267 70.5037C356.699 70.7125 357.03 71.0108 357.26 71.3985C357.491 71.7862 357.606 72.3082 357.606 72.9644C357.606 73.2925 357.548 73.6205 357.433 73.9486C357.347 74.2767 357.159 74.575 356.871 74.8434C356.612 75.1118 356.238 75.3355 355.748 75.5145C355.287 75.6935 354.682 75.8128 353.934 75.8724L335.961 76.0066Z" fill="#DA627D"/>
<path d="M362.963 76.454C361.61 76.454 360.299 76.8119 359.032 77.5278C357.764 78.2436 356.641 79.1831 355.662 80.3463C354.682 81.5095 353.905 82.8219 353.329 84.2833C352.753 85.715 352.465 87.1616 352.465 88.623C352.465 89.2196 352.493 89.8459 352.551 90.5021C352.637 91.1284 352.81 91.71 353.069 92.2469C353.329 92.7838 353.689 93.2312 354.15 93.5891C354.639 93.947 355.287 94.1259 356.094 94.1259C356.727 94.1259 357.462 93.8426 358.297 93.2759C359.161 92.6794 360.04 91.9337 360.933 91.0389C361.854 90.1143 362.747 89.1152 363.611 88.0414C364.475 86.9379 365.253 85.8641 365.944 84.8202C366.636 83.7763 367.197 82.8368 367.629 82.0017C368.061 81.1665 368.277 80.5551 368.277 80.1674C368.277 79.6007 368.09 79.0936 367.716 78.6462C367.341 78.169 366.88 77.7664 366.333 77.4383C365.786 77.1102 365.195 76.8716 364.562 76.7225C363.957 76.5435 363.424 76.454 362.963 76.454ZM392.904 87.9967C392.385 88.5037 391.694 89.2046 390.83 90.0994C389.966 90.9942 388.972 91.9635 387.849 93.0075C386.754 94.0514 385.573 95.1102 384.306 96.1839C383.068 97.2278 381.786 98.1823 380.461 99.0472C379.165 99.9122 377.883 100.613 376.616 101.15C375.348 101.717 374.153 102 373.03 102C372.022 102 371.158 101.776 370.438 101.329C369.717 100.882 369.113 100.3 368.623 99.5841C368.162 98.8683 367.817 98.063 367.586 97.1682C367.356 96.2436 367.24 95.3041 367.24 94.3496C367.24 93.7233 367.284 93.1118 367.37 92.5153C367.456 91.889 367.6 91.3074 367.802 90.7705C366.909 92.0232 365.887 93.3206 364.735 94.6628C363.611 95.9751 362.387 97.1831 361.062 98.2867C359.766 99.3604 358.398 100.24 356.958 100.926C355.547 101.642 354.106 102 352.637 102C351.889 102 351.01 101.836 350.002 101.508C349.023 101.21 348.087 100.703 347.194 99.9867C346.301 99.2709 345.552 98.3463 344.947 97.2129C344.342 96.0795 344.04 94.6926 344.04 93.0522C344.04 91.8293 344.213 90.3679 344.558 88.6678C344.933 86.9677 345.48 85.208 346.2 83.3886C346.949 81.5394 347.885 79.72 349.008 77.9304C350.16 76.1408 351.514 74.5452 353.069 73.1433C354.625 71.7117 356.396 70.5634 358.384 69.6984C360.371 68.8036 362.589 68.3563 365.037 68.3563C366.304 68.3563 367.413 68.5203 368.364 68.8484C369.314 69.1765 370.121 69.5344 370.783 69.9221C371.532 70.3993 372.195 70.9213 372.771 71.488C373.26 71.2196 373.764 70.966 374.283 70.7274C374.715 70.5186 375.161 70.3397 375.622 70.1906C376.112 70.0116 376.529 69.9221 376.875 69.9221C377.969 69.9221 378.862 70.2353 379.554 70.8616C380.245 71.488 380.591 72.174 380.591 72.9196C380.591 73.1284 380.576 73.2925 380.547 73.4118C380.403 73.9785 380.173 74.6943 379.856 75.5592C379.568 76.4242 379.237 77.3935 378.862 78.4673C378.488 79.5112 378.099 80.6147 377.696 81.778C377.321 82.9114 376.976 84.0298 376.659 85.1334C376.342 86.237 376.083 87.2809 375.881 88.2651C375.68 89.2196 375.579 90.0398 375.579 90.7258C375.579 91.6205 375.723 92.3662 376.011 92.9627C376.299 93.5294 376.789 93.8128 377.48 93.8128C377.912 93.8128 378.416 93.6785 378.992 93.4101C379.597 93.1118 380.245 92.7241 380.936 92.2469C381.627 91.7697 382.333 91.2328 383.053 90.6363C383.802 90.0099 384.522 89.3836 385.213 88.7572C386.826 87.2659 388.54 85.5659 390.355 83.657C390.816 83.2693 391.262 83.0754 391.694 83.0754C392.27 83.0754 392.745 83.3737 393.12 83.9702C393.523 84.5369 393.725 85.1781 393.725 85.894C393.725 86.7291 393.451 87.43 392.904 87.9967Z" fill="#DA627D"/>
<path d="M400.81 75.6935C402.567 76.6479 404.137 77.7365 405.519 78.9594C406.902 80.1823 408.068 81.4797 409.019 82.8517C409.998 84.1939 410.733 85.5659 411.222 86.9677C411.741 88.3695 412 89.7415 412 91.0837C412 92.7838 411.525 94.3198 410.574 95.6918C409.653 97.034 408.428 98.1823 406.902 99.1367C405.404 100.061 403.676 100.762 401.717 101.239C399.788 101.746 397.829 102 395.842 102C394.344 102 392.889 101.821 391.478 101.463C390.067 101.135 388.771 100.613 387.59 99.8973C386.438 99.1814 385.444 98.2717 384.609 97.1682C383.773 96.0348 383.183 94.6926 382.837 93.1417C382.78 92.9031 382.751 92.7092 382.751 92.5601C382.751 91.7548 383.024 91.0688 383.572 90.5021C384.119 89.9056 384.724 89.6073 385.386 89.6073C385.703 89.6073 386.049 89.6669 386.423 89.7862C386.826 89.9056 387.129 90.174 387.33 90.5915C387.705 91.3074 388.223 91.9486 388.886 92.5153C389.577 93.082 390.34 93.5742 391.176 93.9917C392.011 94.3795 392.889 94.6926 393.811 94.9312C394.762 95.14 395.683 95.2444 396.576 95.2444C397.498 95.2444 398.376 95.1549 399.212 94.976C400.076 94.797 400.825 94.5137 401.458 94.1259C402.121 93.7382 402.639 93.2461 403.014 92.6495C403.388 92.053 403.575 91.3223 403.575 90.4573C403.575 88.9362 403.244 87.5344 402.581 86.2519C401.919 84.9693 401.055 83.7912 399.989 82.7175C398.952 81.6139 397.757 80.5998 396.403 79.6752C395.078 78.7208 393.753 77.8111 392.428 76.9461C392.284 76.8567 392.068 76.6031 391.78 76.1856C391.492 75.7382 391.348 75.2908 391.348 74.8434C391.348 74.4855 391.435 74.2022 391.608 73.9934C392.068 73.367 392.601 72.7258 393.206 72.0696C393.811 71.4134 394.459 70.8169 395.15 70.28C395.842 69.7133 396.59 69.2659 397.397 68.9379C398.203 68.58 399.039 68.401 399.903 68.401C400.536 68.401 401.127 68.4905 401.674 68.6694C402.221 68.8484 402.682 69.087 403.057 69.3853C403.431 69.6537 403.719 69.9669 403.921 70.3248C404.151 70.6529 404.266 70.966 404.266 71.2643C404.266 71.6819 404.166 72.0845 403.964 72.4722C403.762 72.86 403.489 73.2328 403.143 73.5907C402.826 73.9486 402.452 74.3065 402.02 74.6645C401.617 75.0224 401.213 75.3654 400.81 75.6935Z" fill="#DA627D"/>
</svg>
